<?xml version="1.0" encoding="UTF-8"?>
<svg id="Layer_2" data-name="Layer 2" xmlns="http://www.w3.org/2000/svg" viewBox="0 0 79.85 85.04">
  <defs>
    <style>
      .cls-1 {
        fill: #000;
      }

      .cls-1, .cls-2, .cls-3, .cls-4, .cls-5 {
        stroke-width: 0px;
      }

      .cls-2 {
        fill: #190000;
      }

      .cls-3 {
        fill: #fcefdc;
      }

      .cls-4 {
        fill: #541413;
      }

      .cls-5 {
        fill: #cb302b;
      }
    </style>
  </defs>
  <g id="Layer_1-2" data-name="Layer 1">
    <g>
      <g>
        <path class="cls-2" d="M8.74,76.18c-1.35-.3-1.81-.95-1.68-2.35,1.03-9.32,2.1-18.61,3.02-27.95-2.79-.64-5.45-1.27-8.11-1.86-2.33-.29-2.68-2.65-.58-3.66,3.08-1.94,6.2-3.78,9.23-5.82-2.06-3.75-4.43-7.31-6.47-11.06-.64-1.72,1.23-2.76,2.7-2.1,3.87.94,7.74,1.86,11.6,2.83,2.53.63,2.11.23,3.5,2.65,1.07,1.86,2.14,3.71,3.25,5.62,6.25-1.53,12.36-1.28,18.39.94,5.21-7.02,10.1-14.25,15.32-21.25,1.46-1.53,4.05.32,3.09,2.19-5.02,6.88-10.61,13.36-15.63,20.25.28.12.48.21.66.29,7.01-5.08,13.84-10.4,20.89-15.43.86-.41,1.86-.13,2.39.64.52.74.44,1.83-.22,2.47-6.66,4.76-13.59,9.17-20.26,13.92,1.4,1.11,2.71,2.14,4.03,3.18,14.86-7.99,7.82-7.12,24.14-2.65,2.29.42,2.5,2.87.3,3.65-4.3,2.04-8.63,3.96-12.88,6.11,1.61,2.46,3.1,4.72,4.68,7.15.87,1.19-.28,2.94-1.71,2.6-2.36-.52-4.68-1.1-7.07-1.65-3.76,9.5-7.38,19.04-11.1,28.56-.58,1.5-1.14,1.82-2.68,1.46-2.13-.5-38.79-8.72-38.79-8.72ZM41.52,51.85c-1,.74-1.95.89-3.15.6-8.31-1.94-16.59-3.93-24.92-5.76-.96,8.81-1.91,17.57-2.87,26.41,8.72,1.91,17.36,3.8,26.15,5.73,3.56-10.28,7.12-20.54,10.67-30.8-.06-.04-.13-.07-.19-.11-1.9,1.31-3.83,2.56-5.68,3.93ZM40.05,79.54c2.46.65,4.83,1.31,7.35,1.75,4.4-11.35,8.77-22.61,13.2-34.02-2.95-.64-5.77-1.26-8.72-1.9-3.97,11.47-7.88,22.75-11.83,34.17ZM46.63,44.21c-11.28-2.47-22.29-4.88-33.32-7.29-2.38,1.49-4.72,2.96-7.27,4.55,11.23,2.6,22.24,5.16,33.35,7.73,2.36-1.63,4.67-3.22,7.24-4.99ZM50.44,41.44c-7.38-6.07-15.69-7.87-24.92-5.41,8.28,1.95,16.58,3.77,24.92,5.41ZM14.07,33.63c1.72.38,3.39.74,5.11,1.12.87-.39,1.74-.78,2.71-1.21-1.13-1.97-2.22-3.85-3.34-5.81-2.99-.73-6.01-1.46-9.33-2.27,1.72,2.89,3.29,5.53,4.86,8.17ZM65.69,36.95c-3.33,1.87-6.58,3.7-9.83,5.52v.24c2.22.64,4.51.96,6.81,1.56,3.44-1.62,6.93-3.26,10.41-4.89-.01-.09-.02-.18-.03-.26-2.46-.72-4.91-1.45-7.35-2.17ZM62.53,51.67c.78.18,1.43.34,2.08.49.05-.06.11-.12.16-.17-.44-.68-.87-1.36-1.31-2.04-.1.01-.19.03-.29.04-.2.52-.4,1.04-.64,1.67Z"/>
        <path class="cls-5" d="M47.2,47.92c-1.9,1.31-3.83,2.56-5.68,3.93-1,.74-1.95.89-3.15.6-8.31-1.94-16.59-3.93-24.92-5.76-.96,8.81-1.91,17.57-2.87,26.41,8.72,1.91,17.36,3.8,26.15,5.73,3.56-10.28,7.12-20.54,10.67-30.8-.06-.04-.13-.07-.19-.11Z"/>
        <path class="cls-4" d="M51.89,45.38c-3.97,11.47-7.88,22.75-11.83,34.17,2.46.65,4.83,1.31,7.35,1.75,4.4-11.35,8.77-22.61,13.2-34.02-2.95-.64-5.77-1.26-8.72-1.9Z"/>
        <path class="cls-5" d="M39.39,49.2c2.36-1.63,4.67-3.22,7.24-4.99-11.28-2.47-22.29-4.88-33.32-7.29-2.38,1.49-4.72,2.96-7.27,4.55,11.23,2.6,22.24,5.16,33.35,7.73Z"/>
        <path class="cls-3" d="M25.52,36.03c8.28,1.95,16.58,3.77,24.92,5.41-7.38-6.07-15.69-7.87-24.92-5.41Z"/>
        <path class="cls-5" d="M9.21,25.46c1.72,2.89,3.29,5.53,4.86,8.17,1.72.38,3.39.74,5.11,1.12.87-.39,1.74-.78,2.71-1.21-1.13-1.97-2.22-3.85-3.34-5.81-2.99-.73-6.01-1.46-9.33-2.27Z"/>
        <path class="cls-4" d="M73.04,39.12c-2.46-.72-4.91-1.45-7.35-2.17-3.33,1.87-6.58,3.7-9.83,5.52v.24c2.22.64,4.51.96,6.81,1.56,3.44-1.62,6.93-3.26,10.41-4.89-.01-.09-.02-.18-.03-.26Z"/>
        <path class="cls-4" d="M63.17,50c-.2.52-.4,1.04-.64,1.67.78.18,1.43.34,2.08.49.05-.06.11-.12.16-.17-.44-.68-.87-1.36-1.31-2.04-.1.01-.19.03-.29.04Z"/>
        <g>
          <path class="cls-3" d="M28.99,1.17c-1.54,7.28-5.08,10.68-12.06,11.95,6.83,1.73,10.04,4.67,12.04,12.45,2.23-7.82,5.37-10.75,12.05-12.41-6.8-1.18-10.56-4.67-12.03-11.98Z"/>
          <path class="cls-1" d="M28.97,26.74s-.01,0-.02,0c-.53,0-.99-.37-1.12-.88-1.83-7.1-4.55-9.92-11.19-11.6-.54-.14-.9-.63-.89-1.18.02-.55.42-1.02.96-1.12,6.57-1.19,9.69-4.28,11.12-11.03.11-.54.59-.93,1.15-.93h0c.56,0,1.04.4,1.15.94,1.34,6.64,4.65,9.95,11.08,11.06.55.09.95.56.97,1.11.02.55-.35,1.05-.89,1.18-6.44,1.6-9.16,4.42-11.21,11.59-.14.51-.61.85-1.13.85ZM21.01,13.23c3.94,1.69,6.35,4.27,8,8.56.95-2.36,2.08-4.14,3.48-5.56,1.21-1.22,2.64-2.18,4.43-2.95-3.82-1.46-6.39-4.03-7.95-7.94-1.57,3.91-4.12,6.43-7.97,7.89Z"/>
        </g>
      </g>
      <path class="cls-2" d="M32.12,63.35l-9.66,3.71c-.75.29-1.54-.35-1.41-1.14l1.62-10.22c.13-.8,1.07-1.16,1.69-.65l8.04,6.51c.63.51.47,1.5-.28,1.79Z"/>
    </g>
  </g>
</svg>